<?xml version="1.0" standalone="no"?>
<!DOCTYPE svg PUBLIC "-//W3C//DTD SVG 20010904//EN"
 "http://www.w3.org/TR/2001/REC-SVG-20010904/DTD/svg10.dtd">
<svg version="1.0" xmlns="http://www.w3.org/2000/svg"
 width="512.000000pt" height="512.000000pt" viewBox="0 0 512.000000 512.000000"
 preserveAspectRatio="xMidYMid meet">
<metadata>
Created by potrace 1.15, written by Peter Selinger 2001-2017
</metadata>
<g transform="translate(0.000000,512.000000) scale(0.100000,-0.100000)"
fill="#000000" stroke="none">
<path d="M962 5092 c-41 -38 -44 -68 -40 -364 3 -232 4 -248 24 -275 39 -52
46 -53 379 -53 324 0 495 -10 630 -36 239 -46 420 -143 525 -283 27 -36 50
-69 50 -73 0 -5 -338 -8 -750 -8 -817 0 -799 1 -837 -56 -16 -24 -18 -55 -21
-234 -4 -228 3 -268 51 -304 28 -21 34 -21 822 -24 l794 -3 -14 -40 c-58 -164
-192 -313 -360 -401 -225 -117 -477 -158 -973 -158 l-242 0 -38 -34 -37 -34
-3 -260 c-3 -207 0 -267 11 -294 8 -18 97 -124 198 -234 368 -400 826 -924
1366 -1565 161 -191 299 -349 308 -353 9 -3 196 -6 415 -6 l398 0 31 26 c40
33 57 94 39 132 -43 85 -1130 1371 -1531 1810 -82 90 -148 164 -146 165 2 2
53 11 112 21 501 82 902 318 1131 666 102 155 164 310 211 537 l5 22 324 3
c311 3 326 4 353 24 45 34 52 70 52 287 1 217 -6 251 -55 284 -25 16 -60 18
-358 23 l-330 5 -17 68 c-35 138 -90 266 -160 369 -22 31 -39 59 -39 62 0 3
197 7 438 8 480 3 467 2 497 64 22 46 22 442 0 484 -34 65 98 60 -1621 60
l-1562 0 -30 -28z"/>
</g>
</svg>
