<?xml version="1.0" standalone="no"?>
<!DOCTYPE svg PUBLIC "-//W3C//DTD SVG 20010904//EN"
 "http://www.w3.org/TR/2001/REC-SVG-20010904/DTD/svg10.dtd">
<svg version="1.0" xmlns="http://www.w3.org/2000/svg"
 width="728.000000pt" height="187.000000pt" viewBox="0 0 728.000000 187.000000"
 preserveAspectRatio="xMidYMid meet">
<metadata>
Created by potrace 1.15, written by Peter Selinger 2001-2017
</metadata>
<g transform="translate(0.000000,187.000000) scale(0.100000,-0.100000)"
fill="#000000" stroke="none">
<path d="M5564 1781 c-125 -57 -141 -242 -26 -313 51 -31 97 -38 151 -22 109
32 163 153 112 252 -23 46 -46 67 -94 87 -48 20 -93 19 -143 -4z"/>
<path d="M3584 1359 c-135 -13 -240 -62 -334 -158 -110 -111 -160 -240 -160
-411 0 -266 140 -467 373 -539 166 -51 336 -19 482 88 28 21 55 40 62 44 7 4
31 -20 62 -63 47 -64 54 -70 86 -70 l35 0 -2 533 -3 532 -31 3 c-26 3 -36 -5
-80 -57 -27 -33 -52 -60 -56 -60 -4 -1 -40 23 -81 52 -119 86 -226 118 -353
106z m162 -297 c56 -28 129 -112 148 -169 51 -148 -20 -313 -163 -376 -35 -15
-59 -18 -116 -15 -88 6 -145 34 -192 96 -42 55 -53 98 -53 202 0 68 5 95 24
136 33 72 88 120 166 145 41 14 142 3 186 -19z"/>
<path d="M6340 1345 c-111 -32 -204 -91 -276 -177 -149 -177 -176 -448 -66
-653 65 -119 213 -237 338 -269 84 -22 213 -20 296 3 185 51 336 215 384 417
19 80 14 230 -10 305 -58 186 -203 327 -381 374 -71 18 -222 18 -285 0z m269
-291 c99 -53 141 -134 141 -268 -1 -121 -42 -197 -139 -254 -40 -24 -56 -27
-131 -27 -96 0 -126 12 -186 72 -91 91 -114 238 -55 358 54 109 134 157 252
151 49 -2 79 -10 118 -32z"/>
<path d="M2310 1317 c-36 -13 -90 -40 -120 -61 l-55 -37 -45 52 c-38 43 -50
50 -75 47 l-30 -3 -3 -533 -2 -533 135 3 135 3 2 330 3 330 28 48 c35 60 89
96 154 104 65 7 115 -10 166 -56 67 -60 67 -62 67 -431 l0 -330 140 0 140 0 0
303 c0 350 -7 414 -55 515 -80 169 -244 272 -434 272 -64 0 -103 -6 -151 -23z"/>
<path d="M4300 1316 c0 -2 56 -150 124 -328 68 -177 159 -416 202 -530 l79
-208 140 0 140 0 67 178 c76 202 202 534 277 730 28 74 51 140 51 148 0 11
-27 14 -149 14 -132 0 -150 -2 -156 -17 -4 -10 -41 -115 -82 -233 -128 -368
-138 -394 -149 -397 -6 -2 -38 76 -71 174 -34 98 -85 244 -114 326 l-53 147
-153 0 c-84 0 -153 -2 -153 -4z"/>
<path d="M5500 785 l0 -536 135 3 136 3 0 380 c0 209 -1 449 -1 533 l0 152
-135 0 -135 0 0 -535z"/>
</g>
</svg>
