<?xml version="1.0" standalone="no"?>
<!DOCTYPE svg PUBLIC "-//W3C//DTD SVG 20010904//EN"
 "http://www.w3.org/TR/2001/REC-SVG-20010904/DTD/svg10.dtd">
<svg version="1.0" xmlns="http://www.w3.org/2000/svg"
 width="724.000000pt" height="258.000000pt" viewBox="0 0 724.000000 258.000000"
 preserveAspectRatio="xMidYMid meet">
<metadata>
Created by potrace 1.15, written by Peter Selinger 2001-2017
</metadata>
<g transform="translate(0.000000,258.000000) scale(0.100000,-0.100000)"
fill="#000000" stroke="none">
<path d="M5560 2359 c-32 -13 -78 -56 -96 -91 -8 -15 -14 -54 -14 -86 0 -49 5
-66 29 -99 104 -144 336 -69 334 108 -1 72 -38 126 -110 163 -35 18 -104 20
-143 5z"/>
<path d="M826 2141 c-51 -51 -57 -62 -46 -75 19 -23 30 -20 72 21 l38 37 140
-139 c77 -77 140 -144 140 -150 0 -6 -29 -40 -65 -75 -36 -35 -65 -70 -65 -76
0 -6 7 -17 16 -24 13 -12 28 0 110 81 l94 94 -182 182 c-101 101 -185 183
-188 183 -3 0 -32 -27 -64 -59z"/>
<path d="M667 1982 c-31 -32 -57 -62 -57 -67 0 -6 44 -54 98 -108 l97 -97 68
68 67 67 -98 98 c-53 53 -102 97 -107 97 -6 0 -36 -26 -68 -58z"/>
<path d="M872 2018 c-21 -21 -14 -31 63 -108 l75 -75 -82 -82 -83 -83 62 -62
c62 -61 62 -62 83 -43 l21 19 -43 43 -42 43 82 77 c45 42 82 81 82 87 0 14
-182 196 -196 196 -5 0 -15 -5 -22 -12z"/>
<path d="M3538 1929 c-207 -30 -389 -196 -443 -406 -20 -75 -20 -251 0 -326
48 -184 189 -331 365 -380 174 -48 335 -17 482 94 29 21 57 39 63 39 5 0 30
-29 55 -65 47 -67 66 -81 100 -70 20 6 20 13 18 538 l-3 532 -30 3 c-26 3 -37
-5 -86 -59 l-56 -63 -43 36 c-61 53 -170 107 -247 123 -75 16 -91 16 -175 4z
m188 -294 c48 -20 112 -83 142 -139 36 -70 38 -188 4 -257 -63 -128 -197 -194
-322 -159 -74 20 -126 64 -160 134 -31 63 -32 69 -28 163 6 130 36 188 129
247 54 34 164 39 235 11z"/>
<path d="M6383 1929 c-119 -20 -249 -91 -323 -177 -53 -62 -104 -161 -125
-242 -24 -92 -17 -262 15 -345 147 -387 619 -496 907 -208 72 71 134 190 154
291 28 145 -5 324 -82 444 -76 117 -214 208 -358 234 -85 15 -113 15 -188 3z
m202 -298 c52 -23 117 -95 140 -153 13 -35 16 -67 13 -130 -4 -95 -23 -143
-78 -198 -57 -57 -103 -75 -190 -75 -91 1 -138 22 -198 90 -50 57 -72 119 -72
201 0 148 82 252 225 288 33 8 117 -4 160 -23z"/>
<path d="M2300 1890 c-30 -11 -80 -36 -112 -55 -31 -19 -58 -35 -61 -35 -3 0
-28 23 -55 51 -42 45 -53 51 -75 45 l-27 -6 2 -538 3 -537 115 -3 c63 -1 125
0 137 3 l22 5 3 343 3 344 24 35 c71 103 210 124 305 46 71 -58 70 -55 76
-433 l5 -340 135 0 135 0 3 315 c2 198 -1 339 -8 380 -30 172 -158 323 -325
380 -80 27 -228 27 -305 0z"/>
<path d="M4302 1892 c-14 -9 -10 -21 76 -247 240 -628 315 -821 325 -827 15
-10 249 -10 263 0 6 4 49 108 97 232 288 754 317 834 305 842 -22 13 -272 10
-290 -4 -8 -7 -40 -85 -71 -173 -135 -387 -164 -466 -173 -468 -5 -1 -58 140
-119 313 -61 173 -114 321 -118 328 -9 14 -273 18 -295 4z"/>
<path d="M5495 1888 c-3 -7 -4 -251 -3 -543 l3 -530 115 -3 c63 -1 125 0 138
3 l22 5 0 528 c0 397 -3 531 -12 540 -17 17 -257 17 -263 0z"/>
<path d="M357 1672 l-198 -198 21 -19 c21 -19 22 -18 193 153 95 95 177 172
182 172 13 0 115 -102 115 -115 0 -5 -25 -35 -55 -65 l-56 -56 21 -19 c21 -19
22 -18 103 63 l82 82 -100 100 c-55 55 -102 100 -105 100 -3 0 -94 -89 -203
-198z"/>
<path d="M1255 1750 l-39 -40 22 -22 22 -22 22 22 23 22 122 -122 123 -123 22
23 23 22 -140 140 c-77 77 -145 140 -150 140 -6 0 -29 -18 -50 -40z"/>
<path d="M448 1596 l-127 -122 103 -103 102 -102 137 137 138 138 22 -22 22
-22 -90 -90 c-88 -89 -89 -89 -70 -110 19 -21 19 -21 127 87 59 59 108 112
108 118 0 13 -102 115 -115 115 -6 0 -69 -58 -140 -130 -71 -71 -134 -130
-140 -130 -6 0 -35 25 -65 55 l-54 55 104 105 c104 104 104 105 85 124 -20 20
-21 19 -147 -103z"/>
<path d="M1168 1493 c-136 -136 -137 -137 -158 -118 l-21 19 87 87 c61 61 85
92 81 103 -16 41 -39 29 -143 -75 -57 -57 -104 -108 -104 -114 0 -6 26 -36 58
-68 l57 -57 135 135 c74 74 139 135 145 135 6 0 35 -24 64 -54 l54 -55 -42
-50 c-24 -28 -70 -76 -104 -106 l-61 -55 22 -23 22 -22 125 125 125 125 -103
103 -102 102 -137 -137z"/>
<path d="M1450 1285 l-175 -175 -57 57 c-32 32 -58 63 -58 69 0 7 25 35 57 64
l56 51 -22 22 -21 22 -83 -83 -82 -82 103 -102 102 -103 200 200 c188 187 198
200 183 217 -9 10 -19 18 -22 18 -3 0 -85 -79 -181 -175z"/>
<path d="M258 1408 c-15 -22 -11 -27 124 -160 77 -76 143 -138 147 -138 4 0
25 18 46 41 l40 40 -24 20 c-24 20 -24 20 -45 0 l-22 -21 -119 120 c-66 66
-123 120 -126 120 -4 0 -13 -10 -21 -22z"/>
<path d="M842 1338 c-19 -19 -15 -29 25 -70 l37 -38 -84 -85 -85 -85 102 -102
c88 -88 104 -100 117 -89 28 23 17 45 -59 121 l-75 75 82 82 82 83 -59 60
c-33 33 -62 60 -65 60 -3 0 -11 -5 -18 -12z"/>
<path d="M662 1157 l-92 -92 185 -185 185 -185 62 62 c53 53 60 64 49 77 -20
23 -31 20 -73 -21 l-38 -37 -143 142 -142 142 68 68 c37 37 67 74 67 83 0 15
-18 39 -30 39 -3 0 -47 -42 -98 -93z"/>
<path d="M957 1122 l-67 -67 103 -103 102 -102 68 68 67 67 -103 103 -102 102
-68 -68z"/>
</g>
</svg>
